<svg xmlns="http://www.w3.org/2000/svg" width="21" height="21" viewBox="0 0 21 21" fill="none">
<path d="M17.5 6.60156H3.5V17.4629H17.5V6.60156Z" stroke="black" stroke-width="0.9" stroke-miterlimit="10"/>
<path d="M7.425 6.38247C7.425 6.631 7.62647 6.83247 7.875 6.83247C8.12353 6.83247 8.325 6.631 8.325 6.38247H7.425ZM13.5579 6.38247V6.11647H12.6579V6.38247H13.5579ZM7.425 6.11647V6.38247H8.325V6.11647H7.425ZM10.4915 3.05C8.7979 3.05 7.425 4.42291 7.425 6.11647H8.325C8.325 4.91996 9.29496 3.95 10.4915 3.95V3.05ZM13.5579 6.11647C13.5579 4.42291 12.185 3.05 10.4915 3.05V3.95C11.688 3.95 12.6579 4.91996 12.6579 6.11647H13.5579Z" fill="black"/>
<path d="M10.9136 12.47V14.693H10.0816V12.47H7.87161V11.664H10.0816V9.454H10.9136V11.664H13.1106V12.47H10.9136Z" fill="black"/>
</svg>